# xmcd
#
# Track frame offsets:
#	150
#	29010
#	73696
#	113140
#	145147
#	200613
#	238316
#	282170
#
# Disc length: 4251 seconds
#
# Revision: 0
# Processed by: cddbd v1.5.2PL0 Copyright (c) Steve Scherf et al.
# Submitted via: EZCDAudioConverter 5.0.4.1
#
DISCID=7d109908
DTITLE=서승미 - 서승미 대금 독주집 II - 共存
DYEAR=2008
DGENRE=Inst.
TTITLE0=상령산
TTITLE1=청성곡
TTITLE2=대금산조와 피아노를 위한 '첫 번 째 만남'
TTITLE3=아름다운 추억
TTITLE4=파문
TTITLE5=강마을
TTITLE6=역동
TTITLE7=일본 현악기 고토와 대금 이중주곡 '자연의 향기'
EXTD=
EXTT0=
EXTT1=
EXTT2=
EXTT3=
EXTT4=
EXTT5=
EXTT6=
EXTT7=
PLAYORDER=
